<svg width="128" height="128" fill="none" xmlns="http://www.w3.org/2000/svg"><g clip-path="url('#clip0_10711_11906')"><circle cx="64" cy="64" r="64" fill="#fff"/><path fill-rule="evenodd" clip-rule="evenodd" d="M71.867 47.297c0 2.139.838 4.106 2.421 5.693 2.227 2.228 4.666 2.533 6.325 2.4 1.974-.163 3.96-1.067 5.315-2.42l.348-.35c.996-.998 1.607-1.61 2.202-2.189l4.088 3.992 2.87-2.89.039-.07-4.028-4.04 2.865-2.875-2.995-3.003-2.865 2.878s-8.372-8.414-9.41-9.465c-.559-.569-.9-1.166-.9-2.116 0-1.006.452-1.677.837-2.06.56-.564 1.385-.914 2.14-.914 1.15 0 1.86.611 2.103.87l.063.063.062-.06 1.702-1.7 1.174-1.178.05-.059-.079-.089A7.05 7.05 0 0 0 81.11 25.6c-2 0-3.851.8-5.209 2.25-1.271 1.353-1.997 3.167-1.997 4.978 0 3.008 1.708 4.856 2.915 5.982l-2.547 2.5c-1.482 1.483-2.404 3.78-2.404 5.987Zm5.409-2.968 2.53-2.539 5.663 5.624a275.23 275.23 0 0 1-2.563 2.577c-1.459 1.437-3.874 1.74-5.63-.018-.767-.773-1.171-1.731-1.171-2.778 0-1.055.44-2.13 1.17-2.867ZM95.733 65.19c-3.87-3.867-9.02-5.994-14.496-5.994-5.476 0-10.626 2.127-14.497 5.994-3.871 3.87-6.004 9.01-6.004 14.478 0 5.469 2.133 10.605 6.004 14.471 3.871 3.87 9.021 5.997 14.497 5.997 5.476 0 10.625-2.128 14.496-5.997 3.873-3.866 6.006-9.002 6.006-14.471 0-5.468-2.133-10.608-6.006-14.478ZM81.237 94.87a15.14 15.14 0 0 1-10.768-4.455 15.095 15.095 0 0 1-4.465-10.747c0-4.066 1.588-7.882 4.465-10.753a15.121 15.121 0 0 1 10.768-4.457c4.068 0 7.892 1.58 10.77 4.457a15.102 15.102 0 0 1 4.46 10.753c0 8.381-6.831 15.202-15.23 15.202ZM60.77 50.14a23.48 23.48 0 0 1-12.468 20.763 15.94 15.94 0 0 1 5.33 5.582 15.824 15.824 0 0 1 2.07 7.825c0 4.239-1.661 8.229-4.667 11.233a15.81 15.81 0 0 1-11.248 4.651h-7.791l-.012-73.58h5.228c6.292 0 12.21 2.445 16.664 6.894 4.453 4.444 6.894 10.352 6.894 16.633ZM50.145 37.229a18.217 18.217 0 0 0-12.86-5.347v36.522a18.222 18.222 0 0 0 12.86-5.346c3.458-3.447 5.352-8.035 5.352-12.916 0-4.876-1.894-9.46-5.352-12.913Zm-12.86 57.701h2.496c5.865 0 10.637-4.764 10.637-10.62 0-2.837-1.104-5.501-3.111-7.512a10.641 10.641 0 0 0-7.548-3.103s-2.041-.012-2.473-.012V94.93Z" fill="#000"/></g><defs><clipPath id="clip0_10711_11906"><path fill="#fff" d="M0 0h128v128H0z"/></clipPath></defs></svg>